<svg width="21" height="16" viewBox="0 0 21 16" fill="none" xmlns="http://www.w3.org/2000/svg">
<path d="M20.0368 5.50659C20.1891 5.39237 20.4175 5.50659 20.4175 5.69696V13.464C20.4175 14.492 19.5799 15.2915 18.59 15.2915H2.75136C1.72337 15.2915 0.923828 14.492 0.923828 13.464V5.69696C0.923828 5.50659 1.1142 5.39237 1.26649 5.50659C2.14218 6.19192 3.24632 7.02954 7.12982 9.84698C7.92937 10.4181 9.30002 11.6745 10.6707 11.6745C12.0032 11.6745 13.412 10.4181 14.1734 9.84698C18.0569 7.02954 19.1611 6.19192 20.0368 5.50659ZM10.6707 10.4181C9.7569 10.4562 8.50047 9.31395 7.85322 8.85707C2.78943 5.20201 2.4087 4.85934 1.26649 3.94558C1.03805 3.79328 0.923828 3.52677 0.923828 3.22218V2.49878C0.923828 1.50887 1.72337 0.67125 2.75136 0.67125H18.59C19.5799 0.67125 20.4175 1.50887 20.4175 2.49878V3.22218C20.4175 3.52677 20.2652 3.79328 20.0368 3.94558C18.8946 4.85934 18.5138 5.20201 13.45 8.85707C12.8028 9.31395 11.5464 10.4562 10.6707 10.4181Z" fill="#757575"/>
</svg>
