<svg width="25" height="25" viewBox="0 0 25 25" fill="none" xmlns="http://www.w3.org/2000/svg">
<path d="M12.3465 10.0833C12.9008 10.0833 13.4496 9.97394 13.9616 9.76141C14.4736 9.54887 14.9389 9.23735 15.3308 8.84464C15.7227 8.45192 16.0336 7.98571 16.2457 7.4726C16.4577 6.95949 16.5669 6.40955 16.5669 5.85417C16.5669 5.29878 16.4577 4.74884 16.2457 4.23573C16.0336 3.72263 15.7227 3.25641 15.3308 2.86369C14.9389 2.47098 14.4736 2.15946 13.9616 1.94693C13.4496 1.73439 12.9008 1.625 12.3465 1.625C11.2272 1.625 10.1538 2.07057 9.36228 2.86369C8.57081 3.65682 8.12616 4.73252 8.12616 5.85417C8.12616 6.97581 8.57081 8.05152 9.36228 8.84464C10.1538 9.63776 11.2272 10.0833 12.3465 10.0833ZM1.49414 22.65V23.375H23.1989V22.65C23.1989 19.9433 23.1989 18.59 22.6732 17.5557C22.2108 16.6463 21.4729 15.9069 20.5654 15.4435C19.5332 14.9167 18.1827 14.9167 15.4817 14.9167H9.2114C6.51036 14.9167 5.15984 14.9167 4.12766 15.4435C3.22014 15.9069 2.4823 16.6463 2.01988 17.5557C1.49414 18.59 1.49414 19.9433 1.49414 22.65Z" stroke="#1B2151" stroke-width="2" stroke-linecap="round" stroke-linejoin="round"/>
</svg>
