<svg width="29" height="29" viewBox="0 0 29 29" fill="none" xmlns="http://www.w3.org/2000/svg">
<path d="M16.5 12.0833C17.0554 12.0833 17.6053 11.9739 18.1184 11.7614C18.6315 11.5489 19.0978 11.2374 19.4905 10.8446C19.8832 10.4519 20.1947 9.98571 20.4072 9.4726C20.6198 8.95949 20.7292 8.40955 20.7292 7.85417C20.7292 7.29878 20.6198 6.74884 20.4072 6.23573C20.1947 5.72263 19.8832 5.25641 19.4905 4.86369C19.0978 4.47098 18.6315 4.15946 18.1184 3.94693C17.6053 3.73439 17.0554 3.625 16.5 3.625C15.3784 3.625 14.3027 4.07057 13.5095 4.86369C12.7164 5.65682 12.2708 6.73252 12.2708 7.85417C12.2708 8.97581 12.7164 10.0515 13.5095 10.8446C14.3027 11.6378 15.3784 12.0833 16.5 12.0833ZM5.625 24.65V25.375H27.375V24.65C27.375 21.9433 27.375 20.59 26.8482 19.5557C26.3848 18.6463 25.6454 17.9069 24.736 17.4435C23.7017 16.9167 22.3483 16.9167 19.6417 16.9167H13.3583C10.6517 16.9167 9.29833 16.9167 8.264 17.4435C7.35459 17.9069 6.61521 18.6463 6.15183 19.5557C5.625 20.59 5.625 21.9433 5.625 24.65Z" stroke="white" stroke-width="2" stroke-linecap="round" stroke-linejoin="round"/>
</svg>
