<svg width="58" height="60" viewBox="0 0 58 60" fill="none" xmlns="http://www.w3.org/2000/svg">
<path d="M54.5497 50.625H6.41762V5.9375C6.41762 4.04 4.98328 2.5 3.20881 2.5C1.43434 2.5 0 4.04 0 5.9375V54.0625C0 55.96 1.43434 57.5 3.20881 57.5H54.5497C56.3242 57.5 57.7585 55.96 57.7585 54.0625C57.7585 52.165 56.3242 50.625 54.5497 50.625Z" fill="#00B6FF"/>
<path d="M19.8946 35.5C20.4529 36.2975 21.3033 36.7959 22.2338 36.8647C23.1997 36.9334 24.0725 36.5725 24.7303 35.8644L35.2969 24.5481L43.5949 33.4375H41.0503C39.2758 33.4375 37.8415 34.9775 37.8415 36.875C37.8415 38.7725 39.2758 40.3125 41.0503 40.3125H51.3409C51.7581 40.3125 52.1752 40.2197 52.5667 40.0478C53.3528 39.7006 53.9786 39.0303 54.3027 38.1881C54.4663 37.7687 54.5497 37.3219 54.5497 36.875V25.8509C54.5497 23.9534 53.1154 22.4134 51.3409 22.4134C49.5665 22.4134 48.1321 23.9534 48.1321 25.8509V28.5769L37.5655 17.2572C36.3109 15.9131 34.2829 15.9131 33.0283 17.2572L22.8082 28.2056L15.4023 17.625C14.337 16.1056 12.3282 15.7928 10.9099 16.9375C9.49165 18.0753 9.20286 20.2306 10.2682 21.75L19.8946 35.5Z" fill="#00B6FF"/>
</svg>
