<svg width="26" height="26" viewBox="0 0 26 26" fill="none" xmlns="http://www.w3.org/2000/svg">
<path d="M9.30203 23.8332C8.87769 23.8352 8.46954 23.6359 8.16487 23.2778L0.490672 14.251C0.337712 14.07 0.215662 13.8542 0.131493 13.616C0.0473232 13.3778 0.00268174 13.1219 0.000117291 12.8628C-0.00506185 12.3395 0.161462 11.8351 0.463055 11.4607C0.764648 11.0862 1.17661 10.8723 1.6083 10.866C2.04 10.8597 2.45607 11.0616 2.76499 11.4272L9.30853 19.1209L23.2338 2.72725C23.5432 2.36167 23.9597 2.16002 24.3917 2.16666C24.8237 2.17331 25.2358 2.38771 25.5374 2.7627C25.839 3.13768 26.0054 3.64254 25.9999 4.1662C25.9944 4.68986 25.8175 5.18944 25.5082 5.55503L10.4392 23.2778C10.1345 23.6359 9.72636 23.8352 9.30203 23.8332Z" fill="#00B6FF"/>
</svg>
