<svg width="58" height="60" viewBox="0 0 58 60" fill="none" xmlns="http://www.w3.org/2000/svg">
<path d="M51.9827 0H5.77585C4.244 0 2.77489 0.632141 1.69171 1.75736C0.608526 2.88258 0 4.4087 0 6V39C0 40.5913 0.608526 42.1174 1.69171 43.2426C2.77489 44.3679 4.244 45 5.77585 45H25.9913V54H17.3276C16.5616 54 15.8271 54.3161 15.2855 54.8787C14.7439 55.4413 14.4396 56.2043 14.4396 57C14.4396 57.7957 14.7439 58.5587 15.2855 59.1213C15.8271 59.6839 16.5616 60 17.3276 60H40.431C41.1969 60 41.9315 59.6839 42.4731 59.1213C43.0146 58.5587 43.3189 57.7957 43.3189 57C43.3189 56.2043 43.0146 55.4413 42.4731 54.8787C41.9315 54.3161 41.1969 54 40.431 54H31.7672V45H51.9827C53.5145 45 54.9837 44.3679 56.0668 43.2426C57.15 42.1174 57.7585 40.5913 57.7585 39V6C57.7585 4.4087 57.15 2.88258 56.0668 1.75736C54.9837 0.632141 53.5145 0 51.9827 0ZM51.9827 6V27H5.77585V6H51.9827ZM5.77585 39V33H51.9827V39H5.77585Z" fill="#00B6FF"/>
</svg>
