<svg width="28" height="27" viewBox="0 0 28 27" fill="none" xmlns="http://www.w3.org/2000/svg">
<path d="M20.4059 2.78437C18.4272 1.56094 16.1538 0.84375 13.6699 0.84375V2.78437H20.4059Z" fill="#ED4C5C"/>
<path d="M13.6699 4.7248H22.7635C22.0478 4.00762 21.2479 3.33262 20.4059 2.78418H13.6699V4.7248Z" fill="white"/>
<path d="M13.6699 6.66572H24.3212C23.8581 5.94854 23.3529 5.31572 22.8056 4.7251H13.6699V6.66572Z" fill="#ED4C5C"/>
<path d="M13.6699 8.60615H25.3316C25.0369 7.93115 24.7001 7.25615 24.3212 6.66553H13.6699V8.60615Z" fill="white"/>
<path d="M13.6699 10.5471H25.9631C25.7947 9.87207 25.5842 9.23926 25.3316 8.60645H13.6699V10.5471Z" fill="#ED4C5C"/>
<path d="M13.6699 12.5295H26.2578C26.2157 11.8545 26.0894 11.2217 25.9631 10.5889H13.6699V12.5295Z" fill="white"/>
<path d="M26.2568 12.5298H13.669V13.5001H1.03906C1.03906 13.8376 1.03906 14.1329 1.08116 14.4704H26.2568C26.2989 14.1329 26.2989 13.8376 26.2989 13.5001C26.2989 13.1626 26.2989 12.8251 26.2568 12.5298Z" fill="#ED4C5C"/>
<path d="M1.37673 16.4108H25.963C26.1314 15.778 26.2156 15.1452 26.2577 14.4702H1.08203C1.12413 15.103 1.20833 15.778 1.37673 16.4108Z" fill="white"/>
<path d="M2.00845 18.3518H25.3317C25.5843 17.7189 25.7948 17.0861 25.9632 16.4111H1.37695C1.54535 17.0861 1.75585 17.7189 2.00845 18.3518Z" fill="#ED4C5C"/>
<path d="M3.01821 20.2922H24.3207C24.6996 19.6594 25.0364 19.0266 25.3311 18.3516H2.00781C2.30251 19.0266 2.63931 19.6594 3.01821 20.2922Z" fill="white"/>
<path d="M4.53317 22.2326H22.8045C23.3518 21.642 23.8991 20.967 24.3201 20.292H3.01758C3.43858 21.0092 3.98587 21.642 4.53317 22.2326Z" fill="#ED4C5C"/>
<path d="M6.89079 24.1735H20.4469C21.331 23.6251 22.0888 22.9501 22.8045 22.2329H4.5332C5.2489 22.9923 6.04879 23.6251 6.89079 24.1735Z" fill="white"/>
<path d="M13.6687 26.1562C16.1526 26.1562 18.4681 25.439 20.4467 24.1733H6.89062C8.86931 25.439 11.1848 26.1562 13.6687 26.1562Z" fill="#ED4C5C"/>
<path d="M6.93303 2.78437C6.04893 3.33281 5.24904 4.00781 4.53334 4.725C3.94395 5.31562 3.43875 5.99063 3.01775 6.66563C2.63885 7.29844 2.25996 7.93125 2.00736 8.60625C1.75476 9.23906 1.54426 9.87187 1.37586 10.5469C1.20746 11.1797 1.12326 11.8125 1.08116 12.4875C1.03906 12.825 1.03906 13.1625 1.03906 13.5H13.669V0.84375C11.1851 0.84375 8.91172 1.56094 6.93303 2.78437Z" fill="#428BC1"/>
<path d="M10.7225 1.26562L10.933 1.89844H11.5644L11.0593 2.32031L11.2277 2.95312L10.7225 2.57344L10.2173 2.95312L10.3857 2.32031L9.88046 1.89844H10.512L10.7225 1.26562ZM12.4064 3.79688L12.6169 4.42969H13.2484L12.7432 4.85156L12.9116 5.48438L12.4064 5.10469L11.9012 5.48438L12.0696 4.85156L11.5644 4.42969H12.1959L12.4064 3.79688ZM9.03846 3.79688L9.24896 4.42969H9.88046L9.37526 4.85156L9.54366 5.48438L9.03846 5.10469L8.53327 5.48438L8.70167 4.85156L8.19647 4.42969H8.82797L9.03846 3.79688ZM10.7225 6.32812L10.933 6.96094H11.5644L11.0593 7.38281L11.2277 8.01562L10.7225 7.63594L10.2173 8.01562L10.3857 7.38281L9.88046 6.96094H10.512L10.7225 6.32812ZM7.35447 6.32812L7.56497 6.96094H8.19647L7.69127 7.38281L7.85967 8.01562L7.35447 7.63594L6.84928 8.01562L7.01768 7.38281L6.51248 6.96094H7.14397L7.35447 6.32812ZM3.98649 6.32812L4.19699 6.96094H4.82849L4.32329 7.38281L4.49169 8.01562L3.98649 7.63594L3.4813 8.01562L3.64969 7.38281L3.1445 6.96094H3.77599L3.98649 6.32812ZM12.4064 8.85938L12.6169 9.49219H13.2484L12.7432 9.91406L12.9116 10.5469L12.4064 10.1672L11.9012 10.5469L12.0696 9.91406L11.5644 9.49219H12.1959L12.4064 8.85938ZM9.03846 8.85938L9.24896 9.49219H9.88046L9.37526 9.91406L9.54366 10.5469L9.03846 10.1672L8.53327 10.5469L8.70167 9.91406L8.19647 9.49219H8.82797L9.03846 8.85938ZM5.67048 8.85938L5.88098 9.49219H6.51248L6.00728 9.91406L6.17568 10.5469L5.67048 10.1672L5.16529 10.5469L5.33368 9.91406L4.82849 9.49219H5.45998L5.67048 8.85938ZM10.7225 11.3906L10.933 12.0234H11.5644L11.0593 12.4453L11.2277 13.0781L10.7225 12.6984L10.2173 13.0781L10.3857 12.4453L9.88046 12.0234H10.512L10.7225 11.3906ZM7.35447 11.3906L7.56497 12.0234H8.19647L7.69127 12.4453L7.85967 13.0781L7.35447 12.6984L6.84928 13.0781L7.01768 12.4453L6.51248 12.0234H7.14397L7.35447 11.3906ZM3.98649 11.3906L4.19699 12.0234H4.82849L4.32329 12.4453L4.49169 13.0781L3.98649 12.6984L3.4813 13.0781L3.64969 12.4453L3.1445 12.0234H3.77599L3.98649 11.3906ZM5.16529 5.48438L5.67048 5.10469L6.17568 5.48438L5.96518 4.85156L6.47038 4.42969H5.83888L5.67048 3.79688L5.45998 4.42969H4.87059L5.37578 4.80937L5.16529 5.48438ZM1.79731 10.5469L2.3025 10.1672L2.8077 10.5469L2.5972 9.91406L3.1024 9.49219H2.513L2.3025 8.85938L2.092 9.49219H1.67101C1.67101 9.53438 1.62891 9.57656 1.62891 9.61875L1.9657 9.87187L1.79731 10.5469Z" fill="white"/>
</svg>
