<svg width="58" height="60" viewBox="0 0 58 60" fill="none" xmlns="http://www.w3.org/2000/svg">
<g clip-path="url(#clip0_669_6750)">
<path d="M46.2513 43.3336H51.3403C53.1147 43.3336 54.549 41.8403 54.549 40.0003C54.549 38.1603 53.1147 36.667 51.3403 36.667H38.5054C36.731 36.667 35.2967 38.1603 35.2967 40.0003V53.3334C35.2967 55.1734 36.731 56.6667 38.5054 56.6667C40.2799 56.6667 41.7141 55.1734 41.7141 53.3334V48.0468L52.2805 59.0233C52.9062 59.6733 53.7276 60 54.549 60C55.3705 60 56.1919 59.6733 56.8176 59.0233C58.0722 57.72 58.0722 55.6134 56.8176 54.3101L46.2513 43.3336Z" fill="#00B6FF"/>
<path d="M19.2531 3.33412C17.4819 3.33412 16.0444 4.82743 16.0444 6.66741V11.954L5.47808 0.977486C4.22347 -0.325829 2.19557 -0.325829 0.940957 0.977486C-0.313652 2.2808 -0.313652 4.38744 0.940957 5.69075L11.5073 16.6673H6.41824C4.64703 16.6673 3.20952 18.1606 3.20952 20.0006C3.20952 21.8405 4.64703 23.3338 6.41824 23.3338H19.2531C21.0243 23.3338 22.4618 21.8405 22.4618 20.0006V6.66741C22.4618 4.82743 21.0243 3.33412 19.2531 3.33412Z" fill="#00B6FF"/>
<path d="M19.2531 36.667H6.41824C4.64703 36.667 3.20952 38.1603 3.20952 40.0003C3.20952 41.8403 4.64703 43.3336 6.41824 43.3336H11.5073L0.940957 54.3101C-0.313652 55.6134 -0.313652 57.72 0.940957 59.0233C1.56666 59.6733 2.38809 60 3.20952 60C4.03095 60 4.85238 59.6733 5.47808 59.0233L16.0444 48.0468V53.3334C16.0444 55.1734 17.4819 56.6667 19.2531 56.6667C21.0243 56.6667 22.4618 55.1734 22.4618 53.3334V40.0003C22.4618 38.1603 21.0243 36.667 19.2531 36.667Z" fill="#00B6FF"/>
<path d="M38.5054 23.3338H51.3403C53.1147 23.3338 54.549 21.8405 54.549 20.0006C54.549 18.1606 53.1147 16.6673 51.3403 16.6673H46.2513L56.8176 5.69075C58.0722 4.38744 58.0722 2.2808 56.8176 0.977486C55.563 -0.325829 53.5351 -0.325829 52.2805 0.977486L41.7141 11.954V6.66741C41.7141 4.82743 40.2799 3.33412 38.5054 3.33412C36.731 3.33412 35.2967 4.82743 35.2967 6.66741V20.0006C35.2967 21.8405 36.731 23.3338 38.5054 23.3338Z" fill="#00B6FF"/>
</g>
<defs>
<clipPath id="clip0_669_6750">
<rect width="57.7585" height="60" fill="white"/>
</clipPath>
</defs>
</svg>
