<svg width="58" height="60" viewBox="0 0 58 60" fill="none" xmlns="http://www.w3.org/2000/svg">
<path d="M22.5951 17.811C23.3604 17.811 24.12 17.499 24.6918 16.875C26.8317 14.532 30.6496 14.445 32.8791 16.68C34.0284 17.832 35.8565 17.796 36.9626 16.605C38.0715 15.411 38.0369 13.512 36.8904 12.363C34.7215 10.191 31.8798 9 28.8793 9C25.7285 9 22.676 10.365 20.5014 12.744C19.404 13.944 19.4531 15.843 20.6082 16.986C21.1656 17.538 21.8818 17.811 22.5951 17.811Z" fill="#00B6FF"/>
<path d="M49.0948 21C49.0948 9.423 40.0238 0 28.8793 0C17.7348 0 8.66378 9.423 8.66378 21C3.88715 21 0 25.038 0 30V36C0 40.962 3.88715 45 8.66378 45H11.5517C13.1487 45 14.4396 43.659 14.4396 42V21C14.4396 12.729 20.9173 6 28.8793 6C36.8413 6 43.3189 12.729 43.3189 21V42.249C43.3189 47.073 39.5386 51 34.8948 51H34.6551C34.6551 47.691 32.0647 45 28.8793 45H25.9913C22.806 45 20.2155 47.691 20.2155 51V54C20.2155 57.309 22.806 60 25.9913 60H28.8793C31.0077 60 32.8502 58.785 33.8523 57H34.8948C41.8172 57 47.5815 51.819 48.8262 45H49.0948C53.8714 45 57.7585 40.962 57.7585 36V30C57.7585 25.038 53.8714 21 49.0948 21ZM8.66378 39C7.06965 39 5.77585 37.656 5.77585 36V30C5.77585 28.344 7.06965 27 8.66378 27V39ZM28.8793 54H25.9913V51H28.8793V54ZM51.9827 36C51.9827 37.656 50.6889 39 49.0948 39V27C50.6889 27 51.9827 28.344 51.9827 30V36Z" fill="#00B6FF"/>
</svg>
