<svg width="60" height="62" viewBox="0 0 60 62" fill="none" xmlns="http://www.w3.org/2000/svg">
<path d="M30.6138 58C26.6493 57.9973 22.7349 57.1047 19.154 55.3868C15.5731 53.6689 12.4154 51.1687 9.90931 48.0672C7.40324 44.9656 5.61153 41.3404 4.66389 37.4538C3.71624 33.5671 3.63637 29.5164 4.43005 25.5948C5.22372 21.6732 6.87109 17.9788 9.25292 14.779C11.6347 11.5793 14.6914 8.95415 18.2017 7.09374C21.712 5.23332 25.5881 4.18414 29.5495 4.02213C33.5108 3.86012 37.4583 4.58933 41.1061 6.157M18.7279 28L30.6138 40L51.4141 16M48.4427 40V55M41.014 47.5H55.8714" stroke="#00B6FF" stroke-width="7" stroke-linecap="round" stroke-linejoin="round"/>
</svg>
