<svg width="28" height="27" viewBox="0 0 28 27" fill="none" xmlns="http://www.w3.org/2000/svg">
<path d="M24.3867 0.625C25.168 0.625 25.832 0.898438 26.3789 1.44531C26.9258 1.99219 27.1992 2.65625 27.1992 3.4375V24.0625C27.1992 24.8438 26.9258 25.5078 26.3789 26.0547C25.832 26.6016 25.168 26.875 24.3867 26.875H3.76172C2.98047 26.875 2.31641 26.6016 1.76953 26.0547C1.22266 25.5078 0.949219 24.8438 0.949219 24.0625V3.4375C0.949219 2.65625 1.22266 1.99219 1.76953 1.44531C2.31641 0.898438 2.98047 0.625 3.76172 0.625H24.3867ZM21.5156 9.94141C22.2578 9.39453 22.9023 8.73047 23.4492 7.94922C22.707 8.26172 21.9648 8.45703 21.2227 8.53516C22.043 8.02734 22.6094 7.32422 22.9219 6.42578C22.1406 6.89453 21.3203 7.20703 20.4609 7.36328C19.7188 6.54297 18.8008 6.13281 17.707 6.13281C16.9258 6.13281 16.2031 6.34766 15.5391 6.77734C14.9141 7.20703 14.4453 7.79297 14.1328 8.53516C13.8203 9.23828 13.7617 10.0195 13.957 10.8789C12.3555 10.8008 10.8711 10.4102 9.50391 9.70703C8.13672 8.96484 6.96484 8.00781 5.98828 6.83594C5.63672 7.42188 5.46094 8.06641 5.46094 8.76953C5.46094 9.43359 5.61719 10.0586 5.92969 10.6445C6.24219 11.1914 6.67188 11.6406 7.21875 11.9922C6.59375 11.9531 6.00781 11.7773 5.46094 11.4648V11.5234C5.46094 12.4609 5.75391 13.2812 6.33984 13.9844C6.92578 14.6875 7.66797 15.1367 8.56641 15.332C8.01953 15.4492 7.43359 15.4688 6.80859 15.3906C7.04297 16.1719 7.49219 16.8164 8.15625 17.3242C8.82031 17.793 9.5625 18.0273 10.3828 18.0273C8.97656 19.1211 7.39453 19.668 5.63672 19.668C5.28516 19.668 4.97266 19.668 4.69922 19.668C6.49609 20.8008 8.46875 21.3672 10.6172 21.3672C12.8438 21.3672 14.8359 20.8008 16.5938 19.668C18.1562 18.6523 19.3867 17.2656 20.2852 15.5078C21.1055 13.8672 21.5156 12.168 21.5156 10.4102C21.5156 10.2148 21.5156 10.0586 21.5156 9.94141Z" fill="white"/>
</svg>
