<svg width="27" height="27" viewBox="0 0 27 27" fill="none" xmlns="http://www.w3.org/2000/svg">
<path d="M24.6367 0.625C25.6328 0.625 26.5117 1.50391 26.5117 2.55859V25C26.5117 26.0547 25.6328 26.875 24.6367 26.875H2.07812C1.08203 26.875 0.261719 26.0547 0.261719 25V2.55859C0.261719 1.50391 1.08203 0.625 2.07812 0.625H24.6367ZM8.17188 23.125V10.6445H4.30469V23.125H8.17188ZM6.23828 8.88672C7.46875 8.88672 8.46484 7.89062 8.46484 6.66016C8.46484 5.42969 7.46875 4.375 6.23828 4.375C4.94922 4.375 3.95312 5.42969 3.95312 6.66016C3.95312 7.89062 4.94922 8.88672 6.23828 8.88672ZM22.7617 23.125V16.2695C22.7617 12.9297 22 10.293 18.0742 10.293C16.1992 10.293 14.9102 11.3477 14.3828 12.3438H14.3242V10.6445H10.6328V23.125H14.5V16.9727C14.5 15.332 14.793 13.75 16.8438 13.75C18.8359 13.75 18.8359 15.625 18.8359 17.0312V23.125H22.7617Z" fill="white"/>
</svg>
