<svg width="25" height="28" viewBox="0 0 25 28" fill="none" xmlns="http://www.w3.org/2000/svg">
<path d="M25 10.5059C25 4.3035 19.9768 0.134766 12.5 0.134766C5.14154 0.134766 0 4.39975 0 10.5059C0 12.6904 0.933456 15.8779 2.65625 17.4864L5.56691 14.3509C4.92574 13.7531 4.27316 11.8124 4.27316 10.5059C4.27316 6.29919 8.40699 4.4156 12.5 4.4156C16.4794 4.4156 20.7272 6.01636 20.7272 10.5059C20.7272 15.536 14.8886 16.094 12.7386 16.1264V8.01315H8.17647V21.0238C8.17647 22.3417 6.75625 22.9151 5.24118 21.8129V26.5083C6.18419 26.9729 7.04081 27.1348 7.77463 27.1348C8.59632 27.1348 9.26985 26.9301 9.73529 26.7221C11.5331 25.9286 12.7386 24.0457 12.7386 22.0423V20.4047C20.1915 20.3228 25 16.459 25 10.5059Z" fill="white"/>
</svg>
