<svg width="27" height="28" viewBox="0 0 27 28" fill="none" xmlns="http://www.w3.org/2000/svg">
<path d="M22.5 0.134766H4.5C1.95 0.134766 0 2.08477 0 4.63477V22.6348C0 25.1848 1.95 27.1348 4.5 27.1348H22.5C25.05 27.1348 27 25.1848 27 22.6348V4.63477C27 2.08477 25.05 0.134766 22.5 0.134766ZM13.5 9.13477C16.05 9.13477 18 11.0848 18 13.6348C18 16.1848 16.05 18.1348 13.5 18.1348C10.95 18.1348 9 16.1848 9 13.6348C9 11.0848 10.95 9.13477 13.5 9.13477ZM19.2 6.13477C19.2 5.08477 20.1 4.33477 21 4.33477C21.9 4.33477 22.8 5.23477 22.8 6.13477C22.8 7.03477 22.05 7.93477 21 7.93477C19.95 7.93477 19.2 7.18477 19.2 6.13477ZM22.5 24.1348H4.5C3.6 24.1348 3 23.5348 3 22.6348V13.6348H6C6 17.8348 9.3 21.1348 13.5 21.1348C17.7 21.1348 21 17.8348 21 13.6348H24V22.6348C24 23.5348 23.4 24.1348 22.5 24.1348Z" fill="white"/>
</svg>
