<svg width="27" height="27" viewBox="0 0 27 27" fill="none" xmlns="http://www.w3.org/2000/svg">
<path d="M26.8887 3.4375V24.0625C26.8887 24.8438 26.6152 25.5078 26.0684 26.0547C25.5215 26.6016 24.8574 26.875 24.0762 26.875H19.0957V16.5039H22.6113L23.1387 12.5195H19.0957V10C19.0957 9.375 19.2129 8.90625 19.4473 8.59375C19.7598 8.24219 20.2871 8.06641 21.0293 8.06641H23.1387V4.55078C22.3184 4.43359 21.3027 4.375 20.0918 4.375C18.5293 4.375 17.2793 4.84375 16.3418 5.78125C15.4434 6.67969 14.9941 7.94922 14.9941 9.58984V12.5195H11.4199V16.5039H14.9941V26.875H3.45117C2.66992 26.875 2.00586 26.6016 1.45898 26.0547C0.912109 25.5078 0.638672 24.8438 0.638672 24.0625V3.4375C0.638672 2.65625 0.912109 1.99219 1.45898 1.44531C2.00586 0.898438 2.66992 0.625 3.45117 0.625H24.0762C24.8574 0.625 25.5215 0.898438 26.0684 1.44531C26.6152 1.99219 26.8887 2.65625 26.8887 3.4375Z" fill="white"/>
</svg>
