<svg width="32" height="33" viewBox="0 0 32 33" fill="none" xmlns="http://www.w3.org/2000/svg">
<g clip-path="url(#clip0_658_5910)">
<path fill-rule="evenodd" clip-rule="evenodd" d="M26.3373 6.34677C26.4526 6.21492 26.5408 6.06165 26.5969 5.89572C26.653 5.72978 26.6758 5.55443 26.6641 5.37967C26.6524 5.20491 26.6064 5.03417 26.5287 4.87719C26.451 4.72021 26.3432 4.58007 26.2113 4.46477C26.0795 4.34946 25.9262 4.26126 25.7603 4.20519C25.5943 4.14913 25.419 4.12629 25.2442 4.13799C25.0695 4.14969 24.8987 4.1957 24.7418 4.27339C24.5848 4.35107 24.4446 4.45892 24.3293 4.59077L17.516 12.3774L11.7333 4.6681C11.6091 4.5025 11.4481 4.3681 11.263 4.27553C11.0778 4.18296 10.8737 4.13477 10.6667 4.13477H5.33333C5.08572 4.13477 4.84299 4.20372 4.63236 4.3339C4.42172 4.46408 4.2515 4.65034 4.14076 4.87181C4.03003 5.09329 3.98315 5.34122 4.00539 5.58784C4.02763 5.83446 4.1181 6.07001 4.26667 6.2681L12.8493 17.7108L5.66267 25.9241C5.54737 26.0559 5.45916 26.2092 5.4031 26.3751C5.34703 26.5411 5.32419 26.7164 5.33589 26.8912C5.34759 27.066 5.3936 27.2367 5.47129 27.3937C5.54897 27.5507 5.65682 27.6908 5.78867 27.8061C5.92051 27.9214 6.07378 28.0096 6.23971 28.0657C6.40565 28.1217 6.581 28.1446 6.75576 28.1329C6.93052 28.1212 7.10127 28.0752 7.25825 27.9975C7.41523 27.9198 7.55537 27.8119 7.67067 27.6801L14.484 19.8921L20.2667 27.6014C20.3909 27.767 20.5519 27.9014 20.737 27.994C20.9222 28.0866 21.1263 28.1348 21.3333 28.1348H26.6667C26.9143 28.1348 27.157 28.0658 27.3676 27.9356C27.5783 27.8055 27.7485 27.6192 27.8592 27.3977C27.97 27.1762 28.0168 26.9283 27.9946 26.6817C27.9724 26.4351 27.8819 26.1995 27.7333 26.0014L19.1507 14.5588L26.3373 6.34677ZM22 25.4681L8 6.80143H10L24 25.4681H22Z" fill="white"/>
</g>
<defs>
<clipPath id="clip0_658_5910">
<rect width="32" height="32" fill="white" transform="translate(0 0.134766)"/>
</clipPath>
</defs>
</svg>
